<mxfile host="app.diagrams.net" modified="2023-08-18T07:15:09.971Z" agent="Mozilla/5.0 (Windows NT 10.0; Win64; x64) AppleWebKit/537.36 (KHTML, like Gecko) Chrome/116.0.0.0 Safari/537.36" etag="udBhMuUAKYtwiY-T43l_" version="21.6.8" type="github">
  <diagram name="landing" id="UfyMUi84Jn4F2xk2Supk">
    <mxGraphModel dx="848" dy="759" grid="1" gridSize="10" guides="1" tooltips="1" connect="1" arrows="1" fold="1" page="1" pageScale="1" pageWidth="827" pageHeight="1169" math="0" shadow="0">
      <root>
        <mxCell id="0" />
        <mxCell id="1" parent="0" />
        <mxCell id="zZnndCpEKptrllZ0-GTv-13" style="edgeStyle=orthogonalEdgeStyle;rounded=0;orthogonalLoop=1;jettySize=auto;html=1;" edge="1" parent="1" source="zZnndCpEKptrllZ0-GTv-1" target="zZnndCpEKptrllZ0-GTv-3">
          <mxGeometry relative="1" as="geometry" />
        </mxCell>
        <mxCell id="zZnndCpEKptrllZ0-GTv-14" style="edgeStyle=orthogonalEdgeStyle;rounded=0;orthogonalLoop=1;jettySize=auto;html=1;" edge="1" parent="1" source="zZnndCpEKptrllZ0-GTv-1" target="zZnndCpEKptrllZ0-GTv-4">
          <mxGeometry relative="1" as="geometry" />
        </mxCell>
        <mxCell id="zZnndCpEKptrllZ0-GTv-15" style="edgeStyle=orthogonalEdgeStyle;rounded=0;orthogonalLoop=1;jettySize=auto;html=1;entryX=0;entryY=0.5;entryDx=0;entryDy=0;exitX=0.5;exitY=0.5;exitDx=0;exitDy=0;exitPerimeter=0;" edge="1" parent="1" source="zZnndCpEKptrllZ0-GTv-1" target="zZnndCpEKptrllZ0-GTv-5">
          <mxGeometry relative="1" as="geometry">
            <Array as="points">
              <mxPoint x="130" y="80" />
              <mxPoint x="130" y="215" />
            </Array>
          </mxGeometry>
        </mxCell>
        <mxCell id="zZnndCpEKptrllZ0-GTv-17" style="edgeStyle=orthogonalEdgeStyle;rounded=0;orthogonalLoop=1;jettySize=auto;html=1;exitX=0;exitY=0.3333333333333333;exitDx=0;exitDy=0;exitPerimeter=0;entryX=0.007;entryY=0.354;entryDx=0;entryDy=0;entryPerimeter=0;" edge="1" parent="1" source="zZnndCpEKptrllZ0-GTv-1" target="zZnndCpEKptrllZ0-GTv-18">
          <mxGeometry relative="1" as="geometry" />
        </mxCell>
        <mxCell id="zZnndCpEKptrllZ0-GTv-20" style="edgeStyle=orthogonalEdgeStyle;rounded=0;orthogonalLoop=1;jettySize=auto;html=1;entryX=0.5;entryY=0;entryDx=0;entryDy=0;exitX=0;exitY=1;exitDx=0;exitDy=0;exitPerimeter=0;" edge="1" parent="1" source="zZnndCpEKptrllZ0-GTv-1" target="zZnndCpEKptrllZ0-GTv-6">
          <mxGeometry relative="1" as="geometry">
            <Array as="points">
              <mxPoint x="70" y="290" />
              <mxPoint x="230" y="290" />
            </Array>
          </mxGeometry>
        </mxCell>
        <mxCell id="zZnndCpEKptrllZ0-GTv-1" value="User" style="shape=umlActor;verticalLabelPosition=bottom;verticalAlign=top;html=1;outlineConnect=0;" vertex="1" parent="1">
          <mxGeometry x="70" y="50" width="30" height="60" as="geometry" />
        </mxCell>
        <mxCell id="zZnndCpEKptrllZ0-GTv-3" value="Зарегистрироваться" style="ellipse;whiteSpace=wrap;html=1;" vertex="1" parent="1">
          <mxGeometry x="190" y="10" width="140" height="70" as="geometry" />
        </mxCell>
        <mxCell id="zZnndCpEKptrllZ0-GTv-4" value="Авторизироваться" style="ellipse;whiteSpace=wrap;html=1;" vertex="1" parent="1">
          <mxGeometry x="190" y="90" width="140" height="70" as="geometry" />
        </mxCell>
        <mxCell id="zZnndCpEKptrllZ0-GTv-5" value="Восстановить пароль" style="ellipse;whiteSpace=wrap;html=1;" vertex="1" parent="1">
          <mxGeometry x="190" y="180" width="140" height="70" as="geometry" />
        </mxCell>
        <mxCell id="zZnndCpEKptrllZ0-GTv-6" value="Купить курс" style="ellipse;whiteSpace=wrap;html=1;" vertex="1" parent="1">
          <mxGeometry x="160" y="350" width="140" height="70" as="geometry" />
        </mxCell>
        <mxCell id="zZnndCpEKptrllZ0-GTv-7" value="Зарегистрироваться" style="ellipse;whiteSpace=wrap;html=1;" vertex="1" parent="1">
          <mxGeometry x="344" y="310" width="140" height="70" as="geometry" />
        </mxCell>
        <mxCell id="zZnndCpEKptrllZ0-GTv-8" value="Покупка курса" style="ellipse;whiteSpace=wrap;html=1;" vertex="1" parent="1">
          <mxGeometry x="344" y="410" width="140" height="70" as="geometry" />
        </mxCell>
        <mxCell id="zZnndCpEKptrllZ0-GTv-10" value="Use" style="endArrow=open;endSize=12;dashed=1;html=1;rounded=0;exitX=0.929;exitY=0.286;exitDx=0;exitDy=0;exitPerimeter=0;" edge="1" parent="1" source="zZnndCpEKptrllZ0-GTv-6" target="zZnndCpEKptrllZ0-GTv-7">
          <mxGeometry width="160" relative="1" as="geometry">
            <mxPoint x="290" y="360" as="sourcePoint" />
            <mxPoint x="310" y="230" as="targetPoint" />
          </mxGeometry>
        </mxCell>
        <mxCell id="zZnndCpEKptrllZ0-GTv-11" value="Use" style="endArrow=open;endSize=12;dashed=1;html=1;rounded=0;exitX=0.941;exitY=0.782;exitDx=0;exitDy=0;exitPerimeter=0;entryX=0.014;entryY=0.561;entryDx=0;entryDy=0;entryPerimeter=0;" edge="1" parent="1" source="zZnndCpEKptrllZ0-GTv-6" target="zZnndCpEKptrllZ0-GTv-8">
          <mxGeometry width="160" relative="1" as="geometry">
            <mxPoint x="289" y="370" as="sourcePoint" />
            <mxPoint x="371" y="362" as="targetPoint" />
          </mxGeometry>
        </mxCell>
        <mxCell id="zZnndCpEKptrllZ0-GTv-18" value="Почитать о платформе" style="ellipse;whiteSpace=wrap;html=1;" vertex="1" parent="1">
          <mxGeometry x="140" y="490" width="140" height="70" as="geometry" />
        </mxCell>
      </root>
    </mxGraphModel>
  </diagram>
</mxfile>
